<svg width="91" height="43" viewBox="0 0 91 43" fill="none" xmlns="http://www.w3.org/2000/svg">
<path d="M40.5312 13.6875C40.5312 19.9792 37.7812 24.1146 32.2812 26.0938C35.3646 27.2396 37.6875 29.1042 39.25 31.6875C40.6042 33.9792 41.2812 36.6458 41.2812 39.6875V43H22.6562V0.40625H24.2812C29.7812 0.40625 33.8333 1.44792 36.4375 3.53125C39.1667 5.71875 40.5312 9.10417 40.5312 13.6875ZM0.65625 0.46875H17.4688V43H0.65625V0.46875Z" fill="#F30A0A"/>
<path d="M69.9062 0.46875H72.2188C78.4062 0.46875 83.0312 1.95833 86.0938 4.9375C88.9062 7.66667 90.3125 11.5312 90.3125 16.5312C90.3125 20.9688 88.8542 24.5417 85.9375 27.25C82.8333 30.125 78.5521 31.5625 73.0938 31.5625H69.9062V0.46875ZM47.4688 0.46875H64.2812V42.9375H47.4688V0.46875Z" fill="#503434"/>
</svg>
